<svg width="256" height="256" viewBox="0 0 256 256" fill="none" xmlns="http://www.w3.org/2000/svg">
<path d="M128.159 232.318C185.685 232.318 232.318 185.685 232.318 128.159C232.318 70.6337 185.685 24 128.159 24C70.6337 24 24 70.6337 24 128.159C24 185.685 70.6337 232.318 128.159 232.318Z" fill="url(#paint0_radial_28_121)"/>
<path d="M128.159 211.492C174.183 211.492 211.492 174.183 211.492 128.159C211.492 82.1359 174.183 44.8265 128.159 44.8265C82.1357 44.8265 44.8264 82.1359 44.8264 128.159C44.8264 174.183 82.1357 211.492 128.159 211.492Z" fill="#FEFFFF" stroke="#101827" stroke-width="4.15997" stroke-miterlimit="3.12"/>
<path d="M98.9863 109.399C104.737 109.399 109.4 104.737 109.4 98.9861C109.4 93.2351 104.737 88.5729 98.9863 88.5729C93.2352 88.5729 88.573 93.2351 88.573 98.9861C88.573 104.737 93.2352 109.399 98.9863 109.399Z" fill="#D2D5DB"/>
<path d="M151.079 155.239C159.135 155.239 165.666 148.708 165.666 140.652C165.666 132.597 159.135 126.066 151.079 126.066C143.023 126.066 136.493 132.597 136.493 140.652C136.493 148.708 143.023 155.239 151.079 155.239Z" fill="#D2D5DB"/>
<path d="M119.826 167.746C123.28 167.746 126.079 164.946 126.079 161.492C126.079 158.039 123.28 155.239 119.826 155.239C116.372 155.239 113.573 158.039 113.573 161.492C113.573 164.946 116.372 167.746 119.826 167.746Z" fill="#D2D5DB"/>
<path d="M161.492 107.319C166.095 107.319 169.826 103.588 169.826 98.9861C169.826 94.3838 166.095 90.6528 161.492 90.6528C156.89 90.6528 153.159 94.3838 153.159 98.9861C153.159 103.588 156.89 107.319 161.492 107.319Z" fill="#D2D5DB"/>
<mask id="mask0_28_121" style="mask-type:alpha" maskUnits="userSpaceOnUse" x="128" y="43" width="83" height="168">
<rect x="211" y="211" width="83" height="168" transform="rotate(-180 211 211)" fill="#D9D9D9"/>
</mask>
<g mask="url(#mask0_28_121)">
<path d="M128 46C82.1604 46 45 83.1603 45 129C45 174.84 82.1604 212 128 212C173.84 212 211 174.84 211 129C211 83.1604 173.84 46 128 46Z" fill="#111827" fill-opacity="0.75"/>
</g>
<defs>
<radialGradient id="paint0_radial_28_121" cx="0" cy="0" r="1" gradientUnits="userSpaceOnUse" gradientTransform="translate(128.313 127.213) scale(104.166)">
<stop stop-color="#FEFFFF" stop-opacity="0.9"/>
<stop offset="1" stop-color="#6E9FD5" stop-opacity="0"/>
</radialGradient>
</defs>
</svg>
